# xmcd
#
# Track frame offsets:
#	150
#	11298
#	23187
#	36823
#	46567
#	55878
#	69299
#	82807
#	95796
#	109535
#	121007
#	134836
#	146186
#	161091
#	170972
#	190444
#	203886
# Disc length: 2848 seconds
# Revision: 1
# Processed by: cddbd v1.5.1PL2 Copyright (c) Steve Scherf et al.
#
# Submitted via: libkcddb 0.3
#
DISCID=ea0b1e11
DTITLE=Memphis Slim - The Essential Masters
DYEAR=2001
DGENRE=Blues
TTITLE0=Lonesome
TTITLE1=Let The Good Times Roll
TTITLE2=What Is The Mare Rack?
TTITLE3=Big Bertha
TTITLE4=I'm Lost Without You
TTITLE5=True Love
TTITLE6=Slim's Blues
TTITLE7=Tijuana
TTITLE8=I Guess I'm A Fool
TTITLE9=Marack
TTITLE10=Trouble In Mind
TTITLE11=Don't Want My Rooster Crowin'
TTITLE12=Lonesome In My Bedroom
TTITLE13=Diggin' My Potatoes
TTITLE14=Red Haired Boogie
TTITLE15=Harlem Bound
TTITLE16=El Captain
EXTD=
EXTT0=
EXTT1=
EXTT2=
EXTT3=
EXTT4=
EXTT5=
EXTT6=
EXTT7=
EXTT8=
EXTT9=
EXTT10=
EXTT11=
EXTT12=
EXTT13=
EXTT14=
EXTT15=
EXTT16=
PLAYORDER=
